<svg width="20" height="20" viewBox="0 0 20 20" fill="none" xmlns="http://www.w3.org/2000/svg">
<path d="M18.3332 7.70825H1.6665C1.32484 7.70825 1.0415 7.42492 1.0415 7.08325C1.0415 6.74159 1.32484 6.45825 1.6665 6.45825H18.3332C18.6748 6.45825 18.9582 6.74159 18.9582 7.08325C18.9582 7.42492 18.6748 7.70825 18.3332 7.70825Z" fill="#D1B06B"/>
<path d="M6.66667 14.375H5C4.65833 14.375 4.375 14.0917 4.375 13.75C4.375 13.4083 4.65833 13.125 5 13.125H6.66667C7.00833 13.125 7.29167 13.4083 7.29167 13.75C7.29167 14.0917 7.00833 14.375 6.66667 14.375Z" fill="#D1B06B"/>
<path d="M12.0833 14.375H8.75C8.40833 14.375 8.125 14.0917 8.125 13.75C8.125 13.4083 8.40833 13.125 8.75 13.125H12.0833C12.425 13.125 12.7083 13.4083 12.7083 13.75C12.7083 14.0917 12.425 14.375 12.0833 14.375Z" fill="#D1B06B"/>
<path d="M14.6332 17.7084H5.3665C2.04984 17.7084 1.0415 16.7084 1.0415 13.4251V6.57508C1.0415 3.29175 2.04984 2.29175 5.3665 2.29175H14.6248C17.9415 2.29175 18.9498 3.29175 18.9498 6.57508V13.4167C18.9582 16.7084 17.9498 17.7084 14.6332 17.7084ZM5.3665 3.54175C2.74984 3.54175 2.2915 3.99175 2.2915 6.57508V13.4167C2.2915 16.0001 2.74984 16.4501 5.3665 16.4501H14.6248C17.2415 16.4501 17.6998 16.0001 17.6998 13.4167V6.57508C17.6998 3.99175 17.2415 3.54175 14.6248 3.54175H5.3665Z" fill="#D1B06B"/>
</svg>
