<svg width="136" height="137" viewBox="0 0 136 137" fill="none" xmlns="http://www.w3.org/2000/svg">
<path d="M64.0089 92.183L54.1397 87.9066C47.6913 85.1125 44.8129 77.4204 47.7093 70.7361C48.4079 69.124 50.324 68.3664 51.9361 69.0649C53.5482 69.7634 54.3058 71.6796 53.6072 73.2917C52.125 76.7125 53.5104 80.6286 56.6953 82.0087L66.5645 86.2851C69.1203 87.3925 72.2317 86.032 73.4243 83.2797C74.9066 79.8589 73.9773 78.6623 72.2787 77.0856L58.8523 64.6361C56.2453 62.2455 53.105 58.1761 56.1547 51.1379C58.7785 45.0827 65.6488 42.2686 71.4681 44.7901L81.3373 49.0665C87.7857 51.8607 90.664 59.5528 87.7676 66.2371C87.0691 67.8492 85.153 68.6068 83.5409 67.9083C81.9288 67.2097 81.1712 65.2936 81.8697 63.6815C83.352 60.2607 81.9665 56.3445 78.7817 54.9645L68.9124 50.6881C66.3567 49.5806 63.2452 50.9411 62.0526 53.6935C60.5704 57.1143 61.4996 58.3109 63.1982 59.8876L76.6247 72.3371C79.2316 74.7276 82.372 78.7971 79.3223 85.8353C76.6762 91.8342 69.8282 94.7046 64.0089 92.183Z" fill="#1E376C"/>
<path d="M56.2383 95.0274C54.6262 94.3289 53.8687 92.4128 54.5672 90.8007L75.0122 43.6172C75.7108 42.0051 77.6269 41.2475 79.239 41.946C80.8511 42.6446 81.6087 44.5607 80.9102 46.1728L60.4651 93.3563C59.7666 94.9684 57.8504 95.726 56.2383 95.0274Z" fill="#1E376C"/>
<path d="M61.2189 115.867L37.6271 105.644C16.2766 96.3926 11.1072 83.3178 20.3586 61.9672L30.5811 38.3755C39.8324 17.025 52.9073 11.8555 74.2578 21.1069L97.8496 31.3294C119.2 40.5808 124.37 53.6557 115.118 75.0062L104.896 98.5979C95.6443 119.948 82.5694 125.118 61.2189 115.867ZM71.7022 27.0049C53.5759 19.1506 44.3333 22.8048 36.479 40.9311L26.2565 64.5229C18.4022 82.6492 22.0564 91.8918 40.1828 99.7461L63.7745 109.969C81.9008 117.823 91.1434 114.169 98.9977 96.0423L109.22 72.4506C117.075 54.3242 113.42 45.0817 95.2939 37.2274L71.7022 27.0049Z" fill="#1E376C"/>
</svg>
