<svg width="20" height="20" viewBox="0 0 20 20" fill="none" xmlns="http://www.w3.org/2000/svg">
<path d="M4.16683 19.7917C2.7835 19.7917 1.48349 19.0583 0.783495 17.8667C0.408495 17.2667 0.208496 16.5583 0.208496 15.8333C0.208496 13.65 1.9835 11.875 4.16683 11.875C6.35016 11.875 8.12516 13.65 8.12516 15.8333C8.12516 16.5583 7.92516 17.2667 7.55016 17.875C6.85016 19.0583 5.55016 19.7917 4.16683 19.7917ZM4.16683 13.125C2.67516 13.125 1.4585 14.3417 1.4585 15.8333C1.4585 16.325 1.59183 16.8083 1.85016 17.225C2.34183 18.0583 3.2085 18.5417 4.16683 18.5417C5.12516 18.5417 5.99183 18.05 6.48349 17.2333C6.74183 16.8083 6.87516 16.3333 6.87516 15.8333C6.87516 14.3417 5.6585 13.125 4.16683 13.125Z" fill="#D1B06B"/>
<path d="M3.69157 17.2834C3.53324 17.2834 3.3749 17.2251 3.2499 17.1001L2.4249 16.2751C2.18324 16.0334 2.18324 15.6334 2.4249 15.3917C2.66657 15.15 3.06657 15.15 3.30824 15.3917L3.70824 15.7917L5.04157 14.5584C5.29157 14.325 5.69157 14.3417 5.9249 14.5917C6.15824 14.8417 6.14157 15.2417 5.89157 15.4751L4.11657 17.1167C3.99157 17.225 3.84157 17.2834 3.69157 17.2834Z" fill="#D1B06B"/>
<path d="M5.15853 6.50829C4.95853 6.50829 4.7752 6.41663 4.6502 6.24996C4.50854 6.05829 4.49187 5.80827 4.6002 5.59994C4.74187 5.3166 4.94187 5.04163 5.2002 4.79163L7.90854 2.07495C9.29187 0.699951 11.5419 0.699951 12.9252 2.07495L14.3835 3.55831C15.0002 4.16664 15.3752 4.98331 15.4169 5.84998C15.4252 6.04164 15.3502 6.22496 15.2085 6.34996C15.0669 6.47496 14.8752 6.53328 14.6919 6.49995C14.5252 6.47495 14.3502 6.46663 14.1669 6.46663H5.83353C5.63353 6.46663 5.44187 6.48329 5.2502 6.50829C5.2252 6.50829 5.19187 6.50829 5.15853 6.50829ZM6.5502 5.20829H14.0169C13.9085 4.92496 13.7335 4.66663 13.5002 4.4333L12.0335 2.94994C11.1419 2.06661 9.68353 2.06661 8.78353 2.94994L6.5502 5.20829Z" fill="#D1B06B"/>
<path d="M14.1666 18.9583H6.35824C6.09157 18.9583 5.85823 18.7916 5.76657 18.5499C5.6749 18.2999 5.7499 18.0249 5.9499 17.8582C6.1499 17.6916 6.33323 17.4749 6.46657 17.2416C6.73323 16.8166 6.86657 16.3333 6.86657 15.8416C6.86657 14.3499 5.6499 13.1333 4.15824 13.1333C3.38324 13.1333 2.64157 13.4666 2.1249 14.0582C1.9499 14.2499 1.6749 14.3249 1.43324 14.2333C1.19157 14.1416 1.0249 13.9083 1.0249 13.6499V9.99992C1.0249 7.43325 2.60824 5.57492 5.06657 5.26659C5.29157 5.23326 5.5499 5.20825 5.81657 5.20825H14.1499C14.3499 5.20825 14.6082 5.21658 14.8749 5.25825C17.3332 5.54158 18.9416 7.40825 18.9416 9.99992V14.1666C18.9582 17.0333 17.0332 18.9583 14.1666 18.9583ZM7.6499 17.7083H14.1666C16.3166 17.7083 17.7082 16.3166 17.7082 14.1666V9.99992C17.7082 8.04992 16.5666 6.70823 14.7166 6.49157C14.5166 6.45823 14.3416 6.45825 14.1666 6.45825H5.83324C5.63324 6.45825 5.44157 6.47491 5.2499 6.49991C3.41657 6.73324 2.29157 8.06659 2.29157 9.99992V12.3499C2.85824 12.0416 3.50824 11.8749 4.16657 11.8749C6.3499 11.8749 8.1249 13.6499 8.1249 15.8333C8.1249 16.4916 7.95824 17.1416 7.6499 17.7083Z" fill="#D1B06B"/>
<path d="M18.3332 14.3751H15.8332C14.5665 14.3751 13.5415 13.3501 13.5415 12.0834C13.5415 10.8167 14.5665 9.79175 15.8332 9.79175H18.3332C18.6748 9.79175 18.9582 10.0751 18.9582 10.4167C18.9582 10.7584 18.6748 11.0417 18.3332 11.0417H15.8332C15.2582 11.0417 14.7915 11.5084 14.7915 12.0834C14.7915 12.6584 15.2582 13.1251 15.8332 13.1251H18.3332C18.6748 13.1251 18.9582 13.4084 18.9582 13.7501C18.9582 14.0917 18.6748 14.3751 18.3332 14.3751Z" fill="#D1B06B"/>
</svg>
